<?xml version="1.0" encoding="utf-8"?>
<!-- Generator: Adobe Illustrator 25.0.1, SVG Export Plug-In . SVG Version: 6.00 Build 0)  -->
<svg version="1.1" id="Ebene_1" xmlns="http://www.w3.org/2000/svg" xmlns:xlink="http://www.w3.org/1999/xlink" x="0px" y="0px"
	 viewBox="0 0 50 10" style="enable-background:new 0 0 50 10;" xml:space="preserve">
<style type="text/css">
	.st0{fill:#0E9E68;}
	.st1{fill:#46B27E;}
</style>
<path class="st0" d="M45,10H5c-2.8,0-5-2.2-5-5v0c0-2.8,2.2-5,5-5h40c2.8,0,5,2.2,5,5v0C50,7.8,47.8,10,45,10z"/>
<path class="st1" d="M5,10L5,10c-2.8,0-5-2.2-5-5v0c0-2.8,2.2-5,5-5h0c2.8,0,5,2.2,5,5v0C10,7.8,7.8,10,5,10z"/>
</svg>
